HIERARCHY
ROOT Hips
{
 OFFSET 0.000000 0.000000 0.000000
 CHANNELS 6 Xposition Yposition Zposition Yrotation Xrotation Zrotation
 JOINT Chest
 {
  OFFSET 0.000000 9.585900 0.002600
  CHANNELS 3 Yrotation Xrotation Zrotation
  JOINT Chest2
  {
   OFFSET 0.000000 9.601200 -0.005300
   CHANNELS 3 Yrotation Xrotation Zrotation
   JOINT Chest3
   {
    OFFSET 0.000000 9.561800 0.000000
    CHANNELS 3 Yrotation Xrotation Zrotation
    JOINT Chest4
    {
     OFFSET 0.000000 9.552100 0.000000
     CHANNELS 3 Yrotation Xrotation Zrotation
     JOINT Neck
     {
      OFFSET 0.000000 14.453000 0.000000
      CHANNELS 3 Yrotation Xrotation Zrotation
      JOINT Head
      {
       OFFSET 0.000000 8.936500 -0.011300
       CHANNELS 3 Yrotation Xrotation Zrotation
       End Site
       {
        OFFSET 0.000000 17.073600 -0.006000
       }
      }
     }
     JOINT RightCollar
     {
      OFFSET -2.921100 9.558500 0.000000
      CHANNELS 3 Yrotation Xrotation Zrotation
      JOINT RightShoulder
      {
       OFFSET -13.519700 0.000000 0.000000
       CHANNELS 3 Yrotation Xrotation Zrotation
       JOINT RightElbow
       {
        OFFSET 0.000000 -29.696600 0.000000
        CHANNELS 3 Yrotation Xrotation Zrotation
        JOINT RightWrist
        {
         OFFSET 0.000000 -24.004700 0.000000
         CHANNELS 3 Yrotation Xrotation Zrotation
         End Site
         {
          OFFSET 0.000000 -17.728500 0.000000
         }
        }
       }
      }
     }
     JOINT LeftCollar
     {
      OFFSET 2.921100 9.558500 0.000000
      CHANNELS 3 Yrotation Xrotation Zrotation
      JOINT LeftShoulder
      {
       OFFSET 13.519700 0.000000 0.000000
       CHANNELS 3 Yrotation Xrotation Zrotation
       JOINT LeftElbow
       {
        OFFSET 0.000000 -29.696600 0.000000
        CHANNELS 3 Yrotation Xrotation Zrotation
        JOINT LeftWrist
        {
         OFFSET 0.000000 -24.004700 0.000000
         CHANNELS 3 Yrotation Xrotation Zrotation
         End Site
         {
          OFFSET 0.000000 -17.728500 0.000000
         }
        }
       }
      }
     }
    }
   }
  }
 }
 JOINT RightHip
 {
  OFFSET -7.771700 -0.012900 -0.001300
  CHANNELS 3 Yrotation Xrotation Zrotation
  JOINT RightKnee
  {
   OFFSET 0.000000 -40.869800 0.001200
   CHANNELS 3 Yrotation Xrotation Zrotation
   JOINT RightAnkle
   {
    OFFSET 0.000000 -39.717900 0.002100
    CHANNELS 3 Yrotation Xrotation Zrotation
    JOINT RightToe
    {
     OFFSET 0.000000 -4.965400 11.033500
     CHANNELS 3 Yrotation Xrotation Zrotation
     End Site
     {
      OFFSET 0.000000 -1.423100 5.872300
     }
    }
   }
  }
 }
 JOINT LeftHip
 {
  OFFSET 7.771700 -0.012900 -0.001300
  CHANNELS 3 Yrotation Xrotation Zrotation
  JOINT LeftKnee
  {
   OFFSET 0.000000 -40.869800 0.001200
   CHANNELS 3 Yrotation Xrotation Zrotation
   JOINT LeftAnkle
   {
    OFFSET 0.000000 -39.717900 0.002100
    CHANNELS 3 Yrotation Xrotation Zrotation
    JOINT LeftToe
    {
     OFFSET 0.000000 -4.965400 11.033500
     CHANNELS 3 Yrotation Xrotation Zrotation
     End Site
     {
      OFFSET 0.000000 -1.423100 5.872300
     }
    }
   }
  }
 }
}
MOTION
Frames: 5
Frame Time: 0.008333
-42.663960 56.335593 -10.495117 -178.182794 -12.170790 -0.635558 -0.374084 13.764055 -0.570560 -0.013502 1.161665 0.007392 -0.022850 1.968679 0.012575 -0.139320 12.478742 0.066795 2.351243 15.313644 3.910431 1.601879 -9.621719 3.600292 0.261681 0.552734 1.064573 -0.467786 -7.310378 -5.919131 -78.606811 -59.343568 109.834763 -13.118042 4.473396 -2.912616 -5.537472 -1.890625 1.761053 2.937838 -10.371344 6.761323 60.867668 -51.407041 -101.940008 10.049870 -9.773108 10.853643 -3.593298 -62.920314 12.304852 -29.953547 85.375078 -33.403843 -10.959541 -18.539412 11.663902 0.187610 -0.425546 0.111944 18.032240 -57.654956 -21.705960 69.443340 71.135105 70.434203 -7.010557 -14.837026 0.910880 0.267597 0.750668 0.118283
-42.663727 56.334741 -10.499224 -178.195988 -12.170868 -0.646309 -0.359007 13.791157 -0.558238 -0.013700 1.158178 0.007031 -0.025188 1.958758 0.013069 -0.139012 12.478212 0.066430 2.364391 15.286172 3.914506 1.599413 -9.636300 3.600471 0.263421 0.557980 1.063080 -0.462260 -7.315025 -5.913968 -78.580662 -59.340086 109.801036 -13.114850 4.445930 -2.909396 -5.536756 -1.890020 1.765672 2.925862 -10.366392 6.773497 60.885391 -51.395589 -101.957006 10.044989 -9.778254 10.853398 -3.602386 -62.925912 12.324831 -29.908309 85.375129 -33.361796 -10.890756 -18.447692 11.620619 0.196665 -0.486071 0.133761 18.021506 -57.656445 -21.677704 69.458516 71.142040 70.449270 -7.009982 -14.857123 0.908946 0.270878 0.761101 0.120494
-42.666078 56.333612 -10.501878 -178.196924 -12.162910 -0.645157 -0.356149 13.797412 -0.557757 -0.015217 1.147202 0.005992 -0.020402 1.981728 0.014218 -0.137646 12.468488 0.067495 2.364418 15.268491 3.915015 1.599941 -9.657786 3.601569 0.254757 0.559630 1.060560 -0.459426 -7.329262 -5.911165 -78.580494 -59.340430 109.800324 -13.120697 4.437256 -2.913494 -5.547011 -1.881294 1.766161 2.926806 -10.389318 6.776029 60.875661 -51.391279 -101.951433 10.040251 -9.778292 10.853514 -3.599972 -62.931061 12.323239 -29.882678 85.364025 -33.330791 -10.906023 -18.387397 11.596047 0.247163 -0.498026 0.148684 18.025811 -57.662060 -21.681295 69.458884 71.145089 70.449446 -7.018901 -14.861267 0.908823 0.276351 0.763795 0.123449
-42.668681 56.332062 -10.502403 -178.203254 -12.142822 -0.642365 -0.348614 13.788444 -0.558032 -0.015261 1.151459 0.007350 -0.021783 1.970412 0.012731 -0.132383 12.483763 0.068548 2.365142 15.250078 3.914334 1.600865 -9.677957 3.604027 0.253739 0.560532 1.061662 -0.458717 -7.327890 -5.908623 -78.600743 -59.343733 109.820940 -13.113111 4.425973 -2.914050 -5.554180 -1.880800 1.765597 2.918164 -10.401448 6.783554 60.891418 -51.390441 -101.961276 10.035235 -9.771371 10.855894 -3.587773 -62.948473 12.319269 -30.058932 85.333994 -33.503334 -10.894741 -18.323188 11.568513 0.207845 -0.511806 0.159402 18.038316 -57.681092 -21.691555 69.462032 71.144323 70.449930 -7.025323 -14.863118 0.907859 0.284371 0.765957 0.126133
-42.670860 56.330913 -10.504551 -178.206079 -12.133487 -0.644609 -0.344478 13.782840 -0.554808 -0.012690 1.170391 0.006271 -0.021148 1.964901 0.013643 -0.128975 12.487654 0.067510 2.364737 15.230578 3.915187 1.600185 -9.693735 3.608150 0.257018 0.556298 1.068456 -0.448122 -7.326493 -5.921151 -78.644189 -59.337816 109.851988 -13.107492 4.420656 -2.918038 -5.561220 -1.890067 1.768289 2.900258 -10.399778 6.797206 60.908046 -51.394742 -101.972834 10.032573 -9.772027 10.860753 -3.590915 -62.955792 12.324799 -30.228666 85.311436 -33.673456 -10.854961 -18.255647 11.528765 0.156412 -0.533715 0.172890 18.037684 -57.691597 -21.689813 69.471720 71.146518 70.459407 -7.029900 -14.867223 0.905327 0.290690 0.767060 0.129738
